TITLE ""
FILE "P1Q_t_1130-1138.mp3" MP3
  TRACK 01 AUDIO
    TITLE "P1Q_t_1130-1138_01"
    INDEX 01 00:00:00
  TRACK 02 AUDIO
    TITLE "P1Q_t_1130-1138_02"
    INDEX 01 00:01:27
  TRACK 03 AUDIO
    TITLE "P1Q_t_1130-1138_03"
    INDEX 01 00:01:47
  TRACK 04 AUDIO
    TITLE "P1Q_t_1130-1138_04"
    INDEX 01 00:05:31
  TRACK 05 AUDIO
    TITLE "P1Q_t_1130-1138_05"
    INDEX 01 00:05:53
  TRACK 06 AUDIO
    TITLE "P1Q_t_1130-1138_06"
    INDEX 01 00:09:48
  TRACK 07 AUDIO
    TITLE "P1Q_t_1130-1138_07"
    INDEX 01 00:10:20
  TRACK 08 AUDIO
    TITLE "P1Q_t_1130-1138_08"
    INDEX 01 00:11:49
  TRACK 09 AUDIO
    TITLE "P1Q_t_1130-1138_09"
    INDEX 01 00:11:71
  TRACK 10 AUDIO
    TITLE "P1Q_t_1130-1138_10"
    INDEX 01 00:15:57
  TRACK 11 AUDIO
    TITLE "P1Q_t_1130-1138_11"
    INDEX 01 00:16:01
  TRACK 12 AUDIO
    TITLE "P1Q_t_1130-1138_12"
    INDEX 01 00:20:70
  TRACK 13 AUDIO
    TITLE "P1Q_t_1130-1138_13"
    INDEX 01 00:21:42
  TRACK 14 AUDIO
    TITLE "P1Q_t_1130-1138_14"
    INDEX 01 00:22:51
  TRACK 15 AUDIO
    TITLE "P1Q_t_1130-1138_15"
    INDEX 01 00:22:71
  TRACK 16 AUDIO
    TITLE "P1Q_t_1130-1138_16"
    INDEX 01 00:25:12
  TRACK 17 AUDIO
    TITLE "P1Q_t_1130-1138_17"
    INDEX 01 00:25:32
  TRACK 18 AUDIO
    TITLE "P1Q_t_1130-1138_18"
    INDEX 01 00:28:67
  TRACK 19 AUDIO
    TITLE "P1Q_t_1130-1138_19"
    INDEX 01 00:29:39
  TRACK 20 AUDIO
    TITLE "P1Q_t_1130-1138_20"
    INDEX 01 00:30:47
  TRACK 21 AUDIO
    TITLE "P1Q_t_1130-1138_21"
    INDEX 01 00:31:17
  TRACK 22 AUDIO
    TITLE "P1Q_t_1130-1138_22"
    INDEX 01 00:32:26
  TRACK 23 AUDIO
    TITLE "P1Q_t_1130-1138_23"
    INDEX 01 00:32:48
  TRACK 24 AUDIO
    TITLE "P1Q_t_1130-1138_24"
    INDEX 01 00:35:28
  TRACK 25 AUDIO
    TITLE "P1Q_t_1130-1138_25"
    INDEX 01 00:35:48
  TRACK 26 AUDIO
    TITLE "P1Q_t_1130-1138_26"
    INDEX 01 00:39:65
  TRACK 27 AUDIO
    TITLE "P1Q_t_1130-1138_27"
    INDEX 01 00:40:39
  TRACK 28 AUDIO
    TITLE "P1Q_t_1130-1138_28"
    INDEX 01 00:41:70
  TRACK 29 AUDIO
    TITLE "P1Q_t_1130-1138_29"
    INDEX 01 00:42:15
  TRACK 30 AUDIO
    TITLE "P1Q_t_1130-1138_30"
    INDEX 01 00:44:29
  TRACK 31 AUDIO
    TITLE "P1Q_t_1130-1138_31"
    INDEX 01 00:44:49
  TRACK 32 AUDIO
    TITLE "P1Q_t_1130-1138_32"
    INDEX 01 00:48:49
  TRACK 33 AUDIO
    TITLE "P1Q_t_1130-1138_33"
    INDEX 01 00:49:17
  TRACK 34 AUDIO
    TITLE "P1Q_t_1130-1138_34"
    INDEX 01 00:50:42
  TRACK 35 AUDIO
    TITLE "P1Q_t_1130-1138_35"
    INDEX 01 00:50:63
  TRACK 36 AUDIO
    TITLE "P1Q_t_1130-1138_36"
    INDEX 01 00:52:54
  TRACK 37 AUDIO
    TITLE "P1Q_t_1130-1138_37"
    INDEX 01 00:52:72
  TRACK 38 AUDIO
    TITLE "P1Q_t_1130-1138_38"
    INDEX 01 00:56:73
  TRACK 39 AUDIO
    TITLE "P1Q_t_1130-1138_39"
    INDEX 01 00:57:46
  TRACK 40 AUDIO
    TITLE "P1Q_t_1130-1138_40"
    INDEX 01 00:58:61
  TRACK 41 AUDIO
    TITLE "P1Q_t_1130-1138_41"
    INDEX 01 00:59:07
  TRACK 42 AUDIO
    TITLE "P1Q_t_1130-1138_42"
    INDEX 01 01:01:35
  TRACK 43 AUDIO
    TITLE "P1Q_t_1130-1138_43"
    INDEX 01 01:01:53
  TRACK 44 AUDIO
    TITLE "P1Q_t_1130-1138_44"
    INDEX 01 01:05:72
  TRACK 45 AUDIO
    TITLE "P1Q_t_1130-1138_45"
    INDEX 01 01:06:44
  TRACK 46 AUDIO
    TITLE "P1Q_t_1130-1138_46"
    INDEX 01 01:07:54
  TRACK 47 AUDIO
    TITLE "P1Q_t_1130-1138_47"
    INDEX 01 01:07:73
  TRACK 48 AUDIO
    TITLE "P1Q_t_1130-1138_48"
    INDEX 01 01:12:24
  TRACK 49 AUDIO
    TITLE "P1Q_t_1130-1138_49"
    INDEX 01 01:12:45
  TRACK 50 AUDIO
    TITLE "P1Q_t_1130-1138_50"
    INDEX 01 01:16:37
  TRACK 51 AUDIO
    TITLE "P1Q_t_1130-1138_51"
    INDEX 01 01:17:07
  TRACK 52 AUDIO
    TITLE "P1Q_t_1130-1138_52"
    INDEX 01 01:18:22
  TRACK 53 AUDIO
    TITLE "P1Q_t_1130-1138_53"
    INDEX 01 01:18:46
  TRACK 54 AUDIO
    TITLE "P1Q_t_1130-1138_54"
    INDEX 01 01:19:53
  TRACK 55 AUDIO
    TITLE "P1Q_t_1130-1138_55"
    INDEX 01 01:19:73
  TRACK 56 AUDIO
    TITLE "P1Q_t_1130-1138_56"
    INDEX 01 01:24:33
